<svg xmlns="http://www.w3.org/2000/svg" version="1.1" xmlns:xlink="http://www.w3.org/1999/xlink" xmlns:svgjs="http://svgjs.dev/svgjs" width="2000" height="2000" viewBox="0 0 2000 2000"><g transform="matrix(1,0,0,1,-0.28443113772425477,-0.28443113772459583)"><svg viewBox="0 0 334 334" data-background-color="#ffffff" preserveAspectRatio="xMidYMid meet" height="2000" width="2000" xmlns="http://www.w3.org/2000/svg" xmlns:xlink="http://www.w3.org/1999/xlink"><g id="tight-bounds" transform="matrix(1,0,0,1,0.04749999999998522,0.04750000000001364)"><svg viewBox="0 0 333.90454557049503 333.90454557049503" height="333.90454557049503" width="333.90454557049503"><g><svg></svg></g><g><svg viewBox="0 0 333.90454557049503 333.90454557049503" height="333.90454557049503" width="333.90454557049503"><g><path d="M0 166.952c0-92.205 74.747-166.952 166.952-166.952 92.205 0 166.952 74.747 166.953 166.952 0 92.205-74.747 166.952-166.953 166.953-92.205 0-166.952-74.747-166.952-166.953zM166.952 326.399c88.06 0 159.446-71.387 159.447-159.447 0-88.06-71.387-159.446-159.447-159.446-88.06 0-159.446 71.387-159.446 159.446 0 88.06 71.387 159.446 159.446 159.447z" data-fill-palette-color="tertiary" fill="#ffffff" stroke="transparent"></path><ellipse rx="160.27418187383762" ry="160.27418187383762" cx="166.95227278524752" cy="166.95227278524752" fill="#ffffff" stroke="transparent" stroke-width="0" fill-opacity="1" data-fill-palette-color="tertiary"></ellipse></g><g transform="matrix(1,0,0,1,105.68468738769286,71.17305217166896)"><svg viewBox="0 0 122.5351707951093 191.55844122715712" height="191.55844122715712" width="122.5351707951093"><g><svg viewBox="0 0 122.5351707951093 191.55844122715712" height="191.55844122715712" width="122.5351707951093"><g><svg viewBox="0 0 213.1584412271571 333.22921468939205" height="191.55844122715712" width="122.5351707951093"><g transform="matrix(1,0,0,1,0,140.95587447020077)"><svg viewBox="0 0 213.1584412271571 192.2733402191913" height="192.2733402191913" width="213.1584412271571"><g id="textblocktransform"><svg viewBox="0 0 213.1584412271571 192.2733402191913" height="192.2733402191913" width="213.1584412271571" id="textblock"><g><svg viewBox="0 0 213.1584412271571 144.78686573920103" height="144.78686573920103" width="213.1584412271571"><g transform="matrix(1,0,0,1,0,0)"><svg width="213.1584412271571" viewBox="0.6 -32.35 47.699999999999996 32.4" height="144.78686573920103" data-palette-color="#111111"><path d="M0.7-28.3L0.6-32.35 22.35-32.15 21.95-28.4 13.5-28.35 13.9 0 9.1-0.05 9.2-28.35 0.7-28.3ZM32.55 0.05L32.55 0.05Q28.05 0.05 26.1-0.25L26.1-0.25 25.5-32.25Q26.35-32.35 30.85-32.35 35.35-32.35 38.2-31.55 41.05-30.75 43.4-29L43.4-29Q48.3-25.35 48.3-16.6L48.3-16.6Q48.3-8.8 44.02-4.38 39.75 0.05 32.55 0.05ZM43.65-16.07Q43.65-23.3 40.25-26.23 36.85-29.15 30.05-29.15L30.05-29.15 30.3-3.35Q35.85-3.35 39.55-6L39.55-6Q43.65-8.85 43.65-16.07Z" opacity="1" transform="matrix(1,0,0,1,0,0)" fill="#000000" class="wordmark-text-0" data-fill-palette-color="quaternary" id="text-0"></path></svg></g></svg></g><g transform="matrix(1,0,0,1,0,178.96756985544866)"><svg viewBox="0 0 213.1584412271571 13.30577036374264" height="13.30577036374264" width="213.1584412271571"><g transform="matrix(1,0,0,1,0,0)"><svg width="213.1584412271571" viewBox="-7.5 -23.5 240.3 15" height="13.30577036374264" data-palette-color="#111111"><path d="M-7.5-15.95L-7.5-16.05Q-7.5-18.2-6.53-19.88-5.55-21.55-3.88-22.53-2.2-23.5-0.05-23.5L-0.05-23.5 28.15-23.5Q30.3-23.5 31.98-22.53 33.65-21.55 34.63-19.88 35.6-18.2 35.6-16.05L35.6-16.05 35.6-15.95Q35.6-13.8 34.63-12.13 33.65-10.45 31.98-9.47 30.3-8.5 28.15-8.5L28.15-8.5-0.05-8.5Q-2.2-8.5-3.88-9.47-5.55-10.45-6.53-12.13-7.5-13.8-7.5-15.95L-7.5-15.95ZM20.6-15.95L20.6-16.05Q20.6-18.2 21.58-19.88 22.55-21.55 24.23-22.53 25.9-23.5 28.05-23.5L28.05-23.5 56.25-23.5Q58.4-23.5 60.08-22.53 61.75-21.55 62.73-19.88 63.7-18.2 63.7-16.05L63.7-16.05 63.7-15.95Q63.7-13.8 62.73-12.13 61.75-10.45 60.08-9.47 58.4-8.5 56.25-8.5L56.25-8.5 28.05-8.5Q25.9-8.5 24.23-9.47 22.55-10.45 21.58-12.13 20.6-13.8 20.6-15.95L20.6-15.95ZM48.7-15.95L48.7-16.05Q48.7-18.2 49.68-19.88 50.65-21.55 52.33-22.53 54-23.5 56.15-23.5L56.15-23.5 84.35-23.5Q86.5-23.5 88.18-22.53 89.85-21.55 90.83-19.88 91.8-18.2 91.8-16.05L91.8-16.05 91.8-15.95Q91.8-13.8 90.83-12.13 89.85-10.45 88.18-9.47 86.5-8.5 84.35-8.5L84.35-8.5 56.15-8.5Q54-8.5 52.33-9.47 50.65-10.45 49.68-12.13 48.7-13.8 48.7-15.95L48.7-15.95ZM76.8-15.95L76.8-16.05Q76.8-18.2 77.78-19.88 78.75-21.55 80.43-22.53 82.1-23.5 84.25-23.5L84.25-23.5 112.45-23.5Q114.6-23.5 116.28-22.53 117.95-21.55 118.93-19.88 119.9-18.2 119.9-16.05L119.9-16.05 119.9-15.95Q119.9-13.8 118.93-12.13 117.95-10.45 116.28-9.47 114.6-8.5 112.45-8.5L112.45-8.5 84.25-8.5Q82.1-8.5 80.43-9.47 78.75-10.45 77.78-12.13 76.8-13.8 76.8-15.95L76.8-15.95ZM104.9-15.95L104.9-16.05Q104.9-18.2 105.88-19.88 106.85-21.55 108.53-22.53 110.2-23.5 112.35-23.5L112.35-23.5 126.75-23.5Q128.9-23.5 130.58-22.53 132.25-21.55 133.23-19.88 134.2-18.2 134.2-16.05L134.2-16.05 134.2-15.95Q134.2-13.8 133.23-12.13 132.25-10.45 130.58-9.47 128.9-8.5 126.75-8.5L126.75-8.5 112.35-8.5Q110.2-8.5 108.53-9.47 106.85-10.45 105.88-12.13 104.9-13.8 104.9-15.95L104.9-15.95ZM119.2-15.95L119.2-16.05Q119.2-18.2 120.17-19.88 121.15-21.55 122.83-22.53 124.5-23.5 126.65-23.5L126.65-23.5 154.85-23.5Q157-23.5 158.68-22.53 160.35-21.55 161.32-19.88 162.3-18.2 162.3-16.05L162.3-16.05 162.3-15.95Q162.3-13.8 161.32-12.13 160.35-10.45 158.68-9.47 157-8.5 154.85-8.5L154.85-8.5 126.65-8.5Q124.5-8.5 122.83-9.47 121.15-10.45 120.17-12.13 119.2-13.8 119.2-15.95L119.2-15.95ZM147.3-15.95L147.3-16.05Q147.3-18.2 148.28-19.88 149.25-21.55 150.93-22.53 152.6-23.5 154.75-23.5L154.75-23.5 182.95-23.5Q185.1-23.5 186.78-22.53 188.45-21.55 189.43-19.88 190.4-18.2 190.4-16.05L190.4-16.05 190.4-15.95Q190.4-13.8 189.43-12.13 188.45-10.45 186.78-9.47 185.1-8.5 182.95-8.5L182.95-8.5 154.75-8.5Q152.6-8.5 150.93-9.47 149.25-10.45 148.28-12.13 147.3-13.8 147.3-15.95L147.3-15.95ZM175.4-15.95L175.4-16.05Q175.4-18.2 176.38-19.88 177.35-21.55 179.03-22.53 180.7-23.5 182.85-23.5L182.85-23.5 211.05-23.5Q213.2-23.5 214.88-22.53 216.55-21.55 217.53-19.88 218.5-18.2 218.5-16.05L218.5-16.05 218.5-15.95Q218.5-13.8 217.53-12.13 216.55-10.45 214.88-9.47 213.2-8.5 211.05-8.5L211.05-8.5 182.85-8.5Q180.7-8.5 179.03-9.47 177.35-10.45 176.38-12.13 175.4-13.8 175.4-15.95L175.4-15.95ZM203.5-15.95L203.5-16.05Q203.5-18.2 204.47-19.88 205.45-21.55 207.13-22.53 208.8-23.5 210.95-23.5L210.95-23.5 225.35-23.5Q227.5-23.5 229.18-22.53 230.85-21.55 231.82-19.88 232.8-18.2 232.8-16.05L232.8-16.05 232.8-15.95Q232.8-13.8 231.82-12.13 230.85-10.45 229.18-9.47 227.5-8.5 225.35-8.5L225.35-8.5 210.95-8.5Q208.8-8.5 207.13-9.47 205.45-10.45 204.47-12.13 203.5-13.8 203.5-15.95L203.5-15.95Z" opacity="1" transform="matrix(1,0,0,1,0,0)" fill="#000000" class="slogan-text-1" data-fill-palette-color="quaternary" id="text-1"></path></svg></g></svg></g></svg></g></svg></g><g transform="matrix(1,0,0,1,40.713262274387006,0)"><svg viewBox="0 0 131.7319166783831 106.77517035395314" height="106.77517035395314" width="131.7319166783831"><g><svg xmlns:x="http://ns.adobe.com/Extensibility/1.0/" xmlns:i="http://ns.adobe.com/AdobeIllustrator/10.0/" xmlns:graph="http://ns.adobe.com/Graphs/1.0/" xmlns="http://www.w3.org/2000/svg" xmlns:xlink="http://www.w3.org/1999/xlink" version="1.1" x="0" y="0" viewBox="3.5 12.3 92.9 75.3" enable-background="new 0 0 100 100" xml:space="preserve" height="106.77517035395314" width="131.7319166783831" class="icon-icon-0" data-fill-palette-color="quaternary" id="icon-0"><path d="M10.7 87.6H89.2C93.2 87.6 96.4 84.4 96.4 80.4V19.5C96.4 15.5 93.2 12.3 89.2 12.3H10.7C6.7 12.3 3.5 15.5 3.5 19.5V80.4C3.6 84.4 6.8 87.6 10.7 87.6M89.3 82.6H10.7C9.5 82.6 8.5 81.6 8.5 80.4V34.9H91.4V80.4C91.4 81.7 90.5 82.6 89.3 82.6M10.7 17.4H89.2C90.4 17.4 91.4 18.4 91.4 19.6V30H8.6V19.5C8.6 18.3 9.5 17.4 10.7 17.4M21.9 23.6C21.9 21.9 23.3 20.6 24.9 20.6S27.9 22 27.9 23.6C27.9 25.3 26.5 26.6 24.9 26.6S21.9 25.3 21.9 23.6M31.9 23.6C31.9 21.9 33.3 20.6 34.9 20.6S37.9 22 37.9 23.6C37.9 25.3 36.5 26.6 34.9 26.6S31.9 25.3 31.9 23.6M11.9 23.6C11.9 21.9 13.3 20.6 14.9 20.6 16.6 20.6 17.9 22 17.9 23.6 17.9 25.3 16.5 26.6 14.9 26.6 13.3 26.7 11.9 25.3 11.9 23.6M85.4 74.7C85.4 76.1 84.3 77.2 82.9 77.2H17.1C15.7 77.2 14.6 76.1 14.6 74.7S15.7 72.2 17.1 72.2H82.9C84.3 72.2 85.4 73.4 85.4 74.7M85.4 64.2C85.4 65.6 84.3 66.7 82.9 66.7H34.4C33 66.7 31.9 65.6 31.9 64.2S33 61.7 34.4 61.7H82.9C84.3 61.7 85.4 62.8 85.4 64.2M85.4 53.7C85.4 55.1 84.3 56.2 82.9 56.2H17.1C15.7 56.2 14.6 55.1 14.6 53.7S15.7 51.2 17.1 51.2H82.9C84.3 51.2 85.4 52.3 85.4 53.7M85.4 43.1C85.4 44.5 84.3 45.6 82.9 45.6H50C48.6 45.6 47.5 44.5 47.5 43.1S48.6 40.6 50 40.6H82.9C84.3 40.6 85.4 41.7 85.4 43.1" fill="#000000" data-fill-palette-color="quaternary"></path></svg><g></g></g></svg></g><g></g></svg></g></svg></g></svg></g></svg></g><defs></defs></svg><rect width="333.90454557049503" height="333.90454557049503" fill="none" stroke="none" visibility="hidden"></rect></g></svg></g></svg>